<?xml version="1.0" encoding="UTF-8" standalone="no"?>
<!DOCTYPE svg PUBLIC "-//W3C//DTD SVG 1.1//EN"
 "http://www.w3.org/Graphics/SVG/1.1/DTD/svg11.dtd">
<!-- Generated by graphviz version 2.49.0 (20210828.1703)
 -->
<!-- Title: fst Pages: 1 -->
<svg width="210pt" height="83pt"
 viewBox="0.00 0.00 209.79 82.64" xmlns="http://www.w3.org/2000/svg" xmlns:xlink="http://www.w3.org/1999/xlink">
<g id="graph0" class="graph" transform="scale(1 1) rotate(0) translate(4 78.64)">
<title>fst</title>
<polygon fill="white" stroke="transparent" points="-4,4 -4,-78.64 205.79,-78.64 205.79,4 -4,4"/>
<!-- start -->
<g id="node1" class="node">
<title>start</title>
<ellipse fill="black" stroke="black" cx="1.8" cy="-20.85" rx="1.8" ry="1.8"/>
</g>
<!-- S0 -->
<g id="node2" class="node">
<title>S0</title>
<ellipse fill="none" stroke="black" cx="85.4" cy="-20.85" rx="20.6" ry="20.6"/>
<text text-anchor="middle" x="85.4" y="-17.15" font-family="Times New Roman,serif" font-size="14.00">S0</text>
</g>
<!-- start&#45;&gt;S0 -->
<g id="edge1" class="edge">
<title>start&#45;&gt;S0</title>
<path fill="none" stroke="black" d="M3.72,-20.85C8.75,-20.85 33.56,-20.85 54.36,-20.85"/>
<polygon fill="black" stroke="black" points="54.44,-24.35 64.44,-20.85 54.44,-17.35 54.44,-24.35"/>
<text text-anchor="middle" x="34.1" y="-24.65" font-family="Times New Roman,serif" font-size="14.00">start</text>
</g>
<!-- S0&#45;&gt;S0 -->
<g id="edge3" class="edge">
<title>S0&#45;&gt;S0</title>
<path fill="none" stroke="black" d="M77.13,-40.01C75.72,-50.28 78.48,-59.64 85.4,-59.64 89.83,-59.64 92.55,-55.8 93.57,-50.34"/>
<polygon fill="black" stroke="black" points="97.07,-50.04 93.67,-40.01 90.07,-49.98 97.07,-50.04"/>
<text text-anchor="middle" x="85.4" y="-63.44" font-family="Times New Roman,serif" font-size="14.00">1/0</text>
</g>
<!-- S1 -->
<g id="node3" class="node">
<title>S1</title>
<ellipse fill="none" stroke="black" cx="180.99" cy="-20.85" rx="20.6" ry="20.6"/>
<text text-anchor="middle" x="180.99" y="-17.15" font-family="Times New Roman,serif" font-size="14.00">S1</text>
</g>
<!-- S0&#45;&gt;S1 -->
<g id="edge2" class="edge">
<title>S0&#45;&gt;S1</title>
<path fill="none" stroke="black" d="M106.25,-20.85C118.9,-20.85 135.55,-20.85 149.83,-20.85"/>
<polygon fill="black" stroke="black" points="150.17,-24.35 160.17,-20.85 150.17,-17.35 150.17,-24.35"/>
<text text-anchor="middle" x="133.2" y="-24.65" font-family="Times New Roman,serif" font-size="14.00">0/0</text>
</g>
<!-- S1&#45;&gt;S0 -->
<g id="edge5" class="edge">
<title>S1&#45;&gt;S0</title>
<path fill="none" stroke="black" d="M162.95,-10.17C156.67,-6.81 149.34,-3.54 142.2,-1.85 134.41,0 131.98,0 124.2,-1.85 120.29,-2.77 116.32,-4.17 112.51,-5.8"/>
<polygon fill="black" stroke="black" points="110.93,-2.67 103.44,-10.17 113.97,-8.98 110.93,-2.67"/>
<text text-anchor="middle" x="133.2" y="-5.65" font-family="Times New Roman,serif" font-size="14.00">1/1</text>
</g>
<!-- S1&#45;&gt;S1 -->
<g id="edge4" class="edge">
<title>S1&#45;&gt;S1</title>
<path fill="none" stroke="black" d="M172.73,-40.01C171.32,-50.28 174.08,-59.64 180.99,-59.64 185.43,-59.64 188.15,-55.8 189.17,-50.34"/>
<polygon fill="black" stroke="black" points="192.67,-50.04 189.26,-40.01 185.67,-49.98 192.67,-50.04"/>
<text text-anchor="middle" x="180.99" y="-63.44" font-family="Times New Roman,serif" font-size="14.00">0/0</text>
</g>
</g>
</svg>
