<?xml version="1.0" encoding="UTF-8" standalone="no"?>
<!DOCTYPE svg PUBLIC "-//W3C//DTD SVG 1.1//EN"
 "http://www.w3.org/Graphics/SVG/1.1/DTD/svg11.dtd">
<!-- Generated by graphviz version 2.49.0 (20210828.1703)
 -->
<!-- Title: fst Pages: 1 -->
<svg width="376pt" height="136pt"
 viewBox="0.00 0.00 375.78 135.90" xmlns="http://www.w3.org/2000/svg" xmlns:xlink="http://www.w3.org/1999/xlink">
<g id="graph0" class="graph" transform="scale(1 1) rotate(0) translate(4 131.9)">
<title>fst</title>
<polygon fill="white" stroke="transparent" points="-4,4 -4,-131.9 371.78,-131.9 371.78,4 -4,4"/>
<!-- start -->
<g id="node1" class="node">
<title>start</title>
<ellipse fill="black" stroke="black" cx="1.8" cy="-20.8" rx="1.8" ry="1.8"/>
</g>
<!-- 0 -->
<g id="node2" class="node">
<title>0</title>
<ellipse fill="none" stroke="black" cx="85.4" cy="-20.8" rx="20.6" ry="20.6"/>
<text text-anchor="middle" x="85.4" y="-17.1" font-family="Times New Roman,serif" font-size="14.00">0/&#45;</text>
</g>
<!-- start&#45;&gt;0 -->
<g id="edge1" class="edge">
<title>start&#45;&gt;0</title>
<path fill="none" stroke="black" d="M3.72,-20.8C8.75,-20.8 33.56,-20.8 54.36,-20.8"/>
<polygon fill="black" stroke="black" points="54.44,-24.3 64.44,-20.8 54.44,-17.3 54.44,-24.3"/>
<text text-anchor="middle" x="34.1" y="-24.6" font-family="Times New Roman,serif" font-size="14.00">start</text>
</g>
<!-- 1 -->
<g id="node3" class="node">
<title>1</title>
<ellipse fill="none" stroke="black" cx="171.29" cy="-68.8" rx="22.2" ry="22.2"/>
<text text-anchor="middle" x="171.29" y="-65.1" font-family="Times New Roman,serif" font-size="14.00">1/0</text>
</g>
<!-- 0&#45;&gt;1 -->
<g id="edge2" class="edge">
<title>0&#45;&gt;1</title>
<path fill="none" stroke="black" d="M103.78,-30.74C115.06,-37.2 129.99,-45.74 142.85,-53.1"/>
<polygon fill="black" stroke="black" points="141.35,-56.27 151.77,-58.2 144.83,-50.2 141.35,-56.27"/>
<text text-anchor="middle" x="127.7" y="-49.6" font-family="Times New Roman,serif" font-size="14.00">0</text>
</g>
<!-- 2 -->
<g id="node4" class="node">
<title>2</title>
<ellipse fill="none" stroke="black" cx="345.69" cy="-50.8" rx="22.2" ry="22.2"/>
<text text-anchor="middle" x="345.69" y="-47.1" font-family="Times New Roman,serif" font-size="14.00">2/0</text>
</g>
<!-- 0&#45;&gt;2 -->
<g id="edge3" class="edge">
<title>0&#45;&gt;2</title>
<path fill="none" stroke="black" d="M106.24,-23.1C150.98,-28.3 260.01,-40.96 313.73,-47.2"/>
<polygon fill="black" stroke="black" points="313.37,-50.68 323.7,-48.36 314.17,-43.73 313.37,-50.68"/>
<text text-anchor="middle" x="214.89" y="-39.6" font-family="Times New Roman,serif" font-size="14.00">1</text>
</g>
<!-- 1&#45;&gt;1 -->
<g id="edge8" class="edge">
<title>1&#45;&gt;1</title>
<path fill="none" stroke="black" d="M163.61,-89.84C162.66,-99.96 165.22,-108.9 171.29,-108.9 175.18,-108.9 177.63,-105.23 178.64,-99.93"/>
<polygon fill="black" stroke="black" points="182.14,-99.95 178.98,-89.84 175.15,-99.72 182.14,-99.95"/>
<text text-anchor="middle" x="171.29" y="-112.7" font-family="Times New Roman,serif" font-size="14.00">0</text>
</g>
<!-- 3 -->
<g id="node5" class="node">
<title>3</title>
<ellipse fill="none" stroke="black" cx="258.49" cy="-105.8" rx="22.2" ry="22.2"/>
<text text-anchor="middle" x="258.49" y="-102.1" font-family="Times New Roman,serif" font-size="14.00">3/1</text>
</g>
<!-- 1&#45;&gt;3 -->
<g id="edge9" class="edge">
<title>1&#45;&gt;3</title>
<path fill="none" stroke="black" d="M187.75,-84.25C194.47,-90.07 202.77,-96.16 211.39,-99.8 215.98,-101.74 221.04,-103.09 226.07,-104.03"/>
<polygon fill="black" stroke="black" points="225.83,-107.53 236.21,-105.42 226.78,-100.59 225.83,-107.53"/>
<text text-anchor="middle" x="214.89" y="-105.6" font-family="Times New Roman,serif" font-size="14.00">1</text>
</g>
<!-- 2&#45;&gt;1 -->
<g id="edge4" class="edge">
<title>2&#45;&gt;1</title>
<path fill="none" stroke="black" d="M323.49,-52.2C301.63,-53.74 266.58,-56.43 236.39,-59.8 225.59,-61 213.79,-62.58 203.3,-64.08"/>
<polygon fill="black" stroke="black" points="202.72,-60.63 193.33,-65.54 203.73,-67.56 202.72,-60.63"/>
<text text-anchor="middle" x="258.49" y="-63.6" font-family="Times New Roman,serif" font-size="14.00">0</text>
</g>
<!-- 2&#45;&gt;2 -->
<g id="edge5" class="edge">
<title>2&#45;&gt;2</title>
<path fill="none" stroke="black" d="M338,-71.84C337.06,-81.96 339.62,-90.9 345.69,-90.9 349.58,-90.9 352.02,-87.23 353.03,-81.93"/>
<polygon fill="black" stroke="black" points="356.53,-81.95 353.37,-71.84 349.54,-81.72 356.53,-81.95"/>
<text text-anchor="middle" x="345.69" y="-94.7" font-family="Times New Roman,serif" font-size="14.00">1</text>
</g>
<!-- 3&#45;&gt;1 -->
<g id="edge6" class="edge">
<title>3&#45;&gt;1</title>
<path fill="none" stroke="black" d="M239.1,-95.14C232.66,-91.62 225.31,-87.83 218.39,-84.8 213.25,-82.54 207.69,-80.38 202.26,-78.42"/>
<polygon fill="black" stroke="black" points="203.35,-75.1 192.76,-75.12 201.06,-81.71 203.35,-75.1"/>
<text text-anchor="middle" x="214.89" y="-88.6" font-family="Times New Roman,serif" font-size="14.00">0</text>
</g>
<!-- 3&#45;&gt;2 -->
<g id="edge7" class="edge">
<title>3&#45;&gt;2</title>
<path fill="none" stroke="black" d="M277.56,-94.13C289.31,-86.55 304.83,-76.53 317.99,-68.03"/>
<polygon fill="black" stroke="black" points="320.14,-70.81 326.64,-62.45 316.34,-64.93 320.14,-70.81"/>
<text text-anchor="middle" x="302.09" y="-83.6" font-family="Times New Roman,serif" font-size="14.00">1</text>
</g>
</g>
</svg>
