<?xml version="1.0" encoding="UTF-8" standalone="no"?>
<!DOCTYPE svg PUBLIC "-//W3C//DTD SVG 1.1//EN"
 "http://www.w3.org/Graphics/SVG/1.1/DTD/svg11.dtd">
<!-- Generated by graphviz version 2.49.0 (20210828.1703)
 -->
<!-- Title: fst Pages: 1 -->
<svg width="631pt" height="370pt"
 viewBox="0.00 0.00 630.67 370.00" xmlns="http://www.w3.org/2000/svg" xmlns:xlink="http://www.w3.org/1999/xlink">
<g id="graph0" class="graph" transform="scale(1 1) rotate(0) translate(4 366)">
<title>fst</title>
<polygon fill="white" stroke="transparent" points="-4,4 -4,-366 626.67,-366 626.67,4 -4,4"/>
<!-- start -->
<g id="node1" class="node">
<title>start</title>
<ellipse fill="black" stroke="black" cx="1.8" cy="-179" rx="1.8" ry="1.8"/>
</g>
<!-- 0 -->
<g id="node2" class="node">
<title>0</title>
<ellipse fill="none" stroke="black" cx="85.4" cy="-179" rx="20.6" ry="20.6"/>
<text text-anchor="middle" x="85.4" y="-175.3" font-family="Times New Roman,serif" font-size="14.00">0/&#45;</text>
</g>
<!-- start&#45;&gt;0 -->
<g id="edge1" class="edge">
<title>start&#45;&gt;0</title>
<path fill="none" stroke="black" d="M3.72,-179C8.75,-179 33.56,-179 54.36,-179"/>
<polygon fill="black" stroke="black" points="54.44,-182.5 64.44,-179 54.44,-175.5 54.44,-182.5"/>
<text text-anchor="middle" x="34.1" y="-182.8" font-family="Times New Roman,serif" font-size="14.00">start</text>
</g>
<!-- 1 -->
<g id="node3" class="node">
<title>1</title>
<ellipse fill="none" stroke="black" cx="182.84" cy="-253" rx="26.8" ry="26.8"/>
<text text-anchor="middle" x="182.84" y="-249.3" font-family="Times New Roman,serif" font-size="14.00">1/y1</text>
</g>
<!-- 0&#45;&gt;1 -->
<g id="edge2" class="edge">
<title>0&#45;&gt;1</title>
<path fill="none" stroke="black" d="M102.59,-191.55C116.36,-202.23 136.46,-217.82 152.98,-230.62"/>
<polygon fill="black" stroke="black" points="151.19,-233.66 161.24,-237.02 155.48,-228.13 151.19,-233.66"/>
<text text-anchor="middle" x="131.2" y="-221.8" font-family="Times New Roman,serif" font-size="14.00">x1</text>
</g>
<!-- 2 -->
<g id="node4" class="node">
<title>2</title>
<ellipse fill="none" stroke="black" cx="286.14" cy="-149" rx="26.8" ry="26.8"/>
<text text-anchor="middle" x="286.14" y="-145.3" font-family="Times New Roman,serif" font-size="14.00">2/y1</text>
</g>
<!-- 0&#45;&gt;2 -->
<g id="edge3" class="edge">
<title>0&#45;&gt;2</title>
<path fill="none" stroke="black" d="M106.18,-176.01C139.58,-170.97 207.59,-160.71 249.49,-154.38"/>
<polygon fill="black" stroke="black" points="250.17,-157.82 259.54,-152.86 249.13,-150.9 250.17,-157.82"/>
<text text-anchor="middle" x="182.84" y="-171.8" font-family="Times New Roman,serif" font-size="14.00">x2</text>
</g>
<!-- 1&#45;&gt;2 -->
<g id="edge7" class="edge">
<title>1&#45;&gt;2</title>
<path fill="none" stroke="black" d="M201.95,-234.41C217.99,-217.95 241.56,-193.74 259.53,-175.29"/>
<polygon fill="black" stroke="black" points="262.37,-177.39 266.84,-167.78 257.36,-172.5 262.37,-177.39"/>
<text text-anchor="middle" x="234.49" y="-210.8" font-family="Times New Roman,serif" font-size="14.00">x2</text>
</g>
<!-- 5 -->
<g id="node7" class="node">
<title>5</title>
<ellipse fill="none" stroke="black" cx="596.03" cy="-149" rx="26.8" ry="26.8"/>
<text text-anchor="middle" x="596.03" y="-145.3" font-family="Times New Roman,serif" font-size="14.00">5/y3</text>
</g>
<!-- 1&#45;&gt;5 -->
<g id="edge6" class="edge">
<title>1&#45;&gt;5</title>
<path fill="none" stroke="black" d="M196.08,-276.72C212.33,-304.57 243.87,-347 285.14,-347 285.14,-347 285.14,-347 493.73,-347 565.34,-347 586.36,-243.09 592.5,-185.82"/>
<polygon fill="black" stroke="black" points="596,-185.99 593.48,-175.7 589.03,-185.32 596,-185.99"/>
<text text-anchor="middle" x="389.43" y="-350.8" font-family="Times New Roman,serif" font-size="14.00">x1</text>
</g>
<!-- 4 -->
<g id="node6" class="node">
<title>4</title>
<ellipse fill="none" stroke="black" cx="389.43" cy="-149" rx="26.8" ry="26.8"/>
<text text-anchor="middle" x="389.43" y="-145.3" font-family="Times New Roman,serif" font-size="14.00">4/y2</text>
</g>
<!-- 2&#45;&gt;4 -->
<g id="edge13" class="edge">
<title>2&#45;&gt;4</title>
<path fill="none" stroke="black" d="M312.96,-149C324.99,-149 339.49,-149 352.56,-149"/>
<polygon fill="black" stroke="black" points="352.66,-152.5 362.66,-149 352.66,-145.5 352.66,-152.5"/>
<text text-anchor="middle" x="337.79" y="-152.8" font-family="Times New Roman,serif" font-size="14.00">x2</text>
</g>
<!-- 6 -->
<g id="node8" class="node">
<title>6</title>
<ellipse fill="none" stroke="black" cx="492.73" cy="-149" rx="26.8" ry="26.8"/>
<text text-anchor="middle" x="492.73" y="-145.3" font-family="Times New Roman,serif" font-size="14.00">6/y3</text>
</g>
<!-- 2&#45;&gt;6 -->
<g id="edge12" class="edge">
<title>2&#45;&gt;6</title>
<path fill="none" stroke="black" d="M306.29,-131.32C320.65,-119.34 341.43,-104.53 362.79,-98 385.44,-91.08 393.43,-91.08 416.08,-98 433.77,-103.41 451.06,-114.49 464.64,-124.95"/>
<polygon fill="black" stroke="black" points="462.59,-127.79 472.58,-131.32 466.97,-122.33 462.59,-127.79"/>
<text text-anchor="middle" x="389.43" y="-101.8" font-family="Times New Roman,serif" font-size="14.00">x1</text>
</g>
<!-- 3 -->
<g id="node5" class="node">
<title>3</title>
<ellipse fill="tomato" stroke="black" cx="182.84" cy="-57" rx="26.8" ry="26.8"/>
<text text-anchor="middle" x="182.84" y="-53.3" font-family="Times New Roman,serif" font-size="14.00">3/y2</text>
</g>
<!-- 3&#45;&gt;2 -->
<g id="edge9" class="edge">
<title>3&#45;&gt;2</title>
<path fill="none" stroke="black" d="M203.37,-74.74C218.93,-88.87 240.88,-108.8 258.12,-124.46"/>
<polygon fill="black" stroke="black" points="255.91,-127.18 265.67,-131.32 260.62,-122 255.91,-127.18"/>
<text text-anchor="middle" x="234.49" y="-112.8" font-family="Times New Roman,serif" font-size="14.00">x2</text>
</g>
<!-- 3&#45;&gt;5 -->
<g id="edge8" class="edge">
<title>3&#45;&gt;5</title>
<path fill="none" stroke="black" d="M202.63,-38.65C221.75,-21.99 253.05,0 285.14,0 285.14,0 285.14,0 493.73,0 548.29,0 575.52,-69.16 587.34,-113.25"/>
<polygon fill="black" stroke="black" points="583.98,-114.21 589.83,-123.05 590.76,-112.49 583.98,-114.21"/>
<text text-anchor="middle" x="389.43" y="-3.8" font-family="Times New Roman,serif" font-size="14.00">x1</text>
</g>
<!-- 4&#45;&gt;4 -->
<g id="edge15" class="edge">
<title>4&#45;&gt;4</title>
<path fill="none" stroke="black" d="M380.14,-174.24C379.5,-184.75 382.6,-193.65 389.43,-193.65 393.81,-193.65 396.66,-189.99 397.97,-184.61"/>
<polygon fill="black" stroke="black" points="401.49,-184.47 398.73,-174.24 394.51,-183.96 401.49,-184.47"/>
<text text-anchor="middle" x="389.43" y="-197.45" font-family="Times New Roman,serif" font-size="14.00">x2</text>
</g>
<!-- 4&#45;&gt;6 -->
<g id="edge14" class="edge">
<title>4&#45;&gt;6</title>
<path fill="none" stroke="black" d="M416.26,-149C428.28,-149 442.79,-149 455.86,-149"/>
<polygon fill="black" stroke="black" points="455.95,-152.5 465.95,-149 455.95,-145.5 455.95,-152.5"/>
<text text-anchor="middle" x="441.08" y="-152.8" font-family="Times New Roman,serif" font-size="14.00">x1</text>
</g>
<!-- 5&#45;&gt;1 -->
<g id="edge4" class="edge">
<title>5&#45;&gt;1</title>
<path fill="none" stroke="black" d="M589.63,-174.94C579.17,-217.14 551.84,-296 493.73,-296 285.14,-296 285.14,-296 285.14,-296 259.74,-296 233.4,-284.4 213.95,-273.25"/>
<polygon fill="black" stroke="black" points="215.64,-270.18 205.26,-268.04 212.03,-276.19 215.64,-270.18"/>
<text text-anchor="middle" x="389.43" y="-299.8" font-family="Times New Roman,serif" font-size="14.00">x1</text>
</g>
<!-- 5&#45;&gt;2 -->
<g id="edge5" class="edge">
<title>5&#45;&gt;2</title>
<path fill="none" stroke="black" d="M572.6,-135.76C544.61,-120.13 494.71,-95.24 448.08,-87 396.33,-77.86 374.04,-72.15 330.79,-102 323.41,-107.09 316.36,-113.63 310.15,-120.2"/>
<polygon fill="black" stroke="black" points="307.37,-118.06 303.29,-127.84 312.58,-122.74 307.37,-118.06"/>
<text text-anchor="middle" x="441.08" y="-90.8" font-family="Times New Roman,serif" font-size="14.00">x2</text>
</g>
<!-- 6&#45;&gt;2 -->
<g id="edge11" class="edge">
<title>6&#45;&gt;2</title>
<path fill="none" stroke="black" d="M476.07,-170.07C462.35,-186.62 440.78,-208.43 416.08,-218 394,-226.56 384.87,-226.56 362.79,-218 341.76,-209.85 322.99,-192.83 309.41,-177.73"/>
<polygon fill="black" stroke="black" points="311.98,-175.35 302.8,-170.07 306.68,-179.93 311.98,-175.35"/>
<text text-anchor="middle" x="389.43" y="-227.8" font-family="Times New Roman,serif" font-size="14.00">x2</text>
</g>
<!-- 6&#45;&gt;5 -->
<g id="edge10" class="edge">
<title>6&#45;&gt;5</title>
<path fill="none" stroke="black" d="M519.55,-149C531.58,-149 546.08,-149 559.15,-149"/>
<polygon fill="black" stroke="black" points="559.25,-152.5 569.25,-149 559.25,-145.5 559.25,-152.5"/>
<text text-anchor="middle" x="544.38" y="-152.8" font-family="Times New Roman,serif" font-size="14.00">x1</text>
</g>
</g>
</svg>
