<?xml version="1.0" encoding="UTF-8" standalone="no"?>
<!DOCTYPE svg PUBLIC "-//W3C//DTD SVG 1.1//EN"
 "http://www.w3.org/Graphics/SVG/1.1/DTD/svg11.dtd">
<!-- Generated by graphviz version 2.49.0 (20210828.1703)
 -->
<!-- Title: fst Pages: 1 -->
<svg width="335pt" height="143pt"
 viewBox="0.00 0.00 335.29 142.90" xmlns="http://www.w3.org/2000/svg" xmlns:xlink="http://www.w3.org/1999/xlink">
<g id="graph0" class="graph" transform="scale(1 1) rotate(0) translate(4 138.9)">
<title>fst</title>
<polygon fill="white" stroke="transparent" points="-4,4 -4,-138.9 331.29,-138.9 331.29,4 -4,4"/>
<!-- start -->
<g id="node1" class="node">
<title>start</title>
<ellipse fill="black" stroke="black" cx="1.8" cy="-113.45" rx="1.8" ry="1.8"/>
</g>
<!-- A0 -->
<g id="node2" class="node">
<title>A0</title>
<ellipse fill="none" stroke="black" cx="86.05" cy="-113.45" rx="21.4" ry="21.4"/>
<text text-anchor="middle" x="86.05" y="-109.75" font-family="Times New Roman,serif" font-size="14.00">A0</text>
</g>
<!-- start&#45;&gt;A0 -->
<g id="edge1" class="edge">
<title>start&#45;&gt;A0</title>
<path fill="none" stroke="black" d="M3.72,-113.45C8.77,-113.45 33.51,-113.45 54.39,-113.45"/>
<polygon fill="black" stroke="black" points="54.53,-116.95 64.53,-113.45 54.53,-109.95 54.53,-116.95"/>
<text text-anchor="middle" x="34.1" y="-117.25" font-family="Times New Roman,serif" font-size="14.00">start</text>
</g>
<!-- A2 -->
<g id="node4" class="node">
<title>A2</title>
<ellipse fill="none" stroke="black" cx="195.94" cy="-75.45" rx="21.4" ry="21.4"/>
<text text-anchor="middle" x="195.94" y="-71.75" font-family="Times New Roman,serif" font-size="14.00">A2</text>
</g>
<!-- A0&#45;&gt;A2 -->
<g id="edge2" class="edge">
<title>A0&#45;&gt;A2</title>
<path fill="none" stroke="black" d="M99.71,-96.41C106.43,-88.79 115.39,-80.61 125.5,-76.45 137.69,-71.43 152.14,-70.52 164.7,-71.12"/>
<polygon fill="black" stroke="black" points="164.46,-74.61 174.71,-71.92 165.02,-67.63 164.46,-74.61"/>
<text text-anchor="middle" x="141" y="-80.25" font-family="Times New Roman,serif" font-size="14.00">x1/y1</text>
</g>
<!-- A3 -->
<g id="node5" class="node">
<title>A3</title>
<ellipse fill="none" stroke="black" cx="305.84" cy="-75.45" rx="21.4" ry="21.4"/>
<text text-anchor="middle" x="305.84" y="-71.75" font-family="Times New Roman,serif" font-size="14.00">A3</text>
</g>
<!-- A0&#45;&gt;A3 -->
<g id="edge3" class="edge">
<title>A0&#45;&gt;A3</title>
<path fill="none" stroke="black" d="M107.31,-117.84C113.15,-118.92 119.55,-119.91 125.5,-120.45 139.22,-121.69 142.81,-122.04 156.5,-120.45 206.35,-114.63 219.17,-111.45 266.39,-94.45 270.15,-93.1 274.01,-91.48 277.78,-89.76"/>
<polygon fill="black" stroke="black" points="279.34,-92.9 286.83,-85.4 276.3,-86.59 279.34,-92.9"/>
<text text-anchor="middle" x="195.94" y="-121.25" font-family="Times New Roman,serif" font-size="14.00">x2/y1</text>
</g>
<!-- A1 -->
<g id="node3" class="node">
<title>A1</title>
<ellipse fill="tomato" stroke="black" cx="86.05" cy="-21.45" rx="21.4" ry="21.4"/>
<text text-anchor="middle" x="86.05" y="-17.75" font-family="Times New Roman,serif" font-size="14.00">A1</text>
</g>
<!-- A1&#45;&gt;A2 -->
<g id="edge4" class="edge">
<title>A1&#45;&gt;A2</title>
<path fill="none" stroke="black" d="M106.27,-28.84C120.42,-34.5 139.98,-42.79 156.5,-51.45 160.61,-53.6 164.86,-56.04 168.98,-58.51"/>
<polygon fill="black" stroke="black" points="167.32,-61.6 177.66,-63.89 171,-55.65 167.32,-61.6"/>
<text text-anchor="middle" x="141" y="-55.25" font-family="Times New Roman,serif" font-size="14.00">x1/y2</text>
</g>
<!-- A1&#45;&gt;A3 -->
<g id="edge5" class="edge">
<title>A1&#45;&gt;A3</title>
<path fill="none" stroke="black" d="M107.66,-20.87C133.61,-20.59 179.39,-21.62 217.39,-30.45 240.3,-35.77 245.55,-39.54 266.39,-50.45 270.55,-52.62 274.84,-55.12 278.97,-57.68"/>
<polygon fill="black" stroke="black" points="277.35,-60.81 287.65,-63.28 281.14,-54.92 277.35,-60.81"/>
<text text-anchor="middle" x="195.94" y="-34.25" font-family="Times New Roman,serif" font-size="14.00">x2/y2</text>
</g>
<!-- A2&#45;&gt;A0 -->
<g id="edge6" class="edge">
<title>A2&#45;&gt;A0</title>
<path fill="none" stroke="black" d="M175.91,-83.76C169.76,-86.34 162.88,-89.11 156.5,-91.45 143.6,-96.16 129.14,-100.84 116.78,-104.66"/>
<polygon fill="black" stroke="black" points="115.51,-101.39 106.96,-107.65 117.55,-108.08 115.51,-101.39"/>
<text text-anchor="middle" x="141" y="-105.25" font-family="Times New Roman,serif" font-size="14.00">x1/y3</text>
</g>
<!-- A2&#45;&gt;A3 -->
<g id="edge7" class="edge">
<title>A2&#45;&gt;A3</title>
<path fill="none" stroke="black" d="M215.13,-64.94C221.35,-61.9 228.49,-58.98 235.39,-57.45 248.84,-54.46 252.94,-54.46 266.39,-57.45 270.06,-58.26 273.79,-59.47 277.42,-60.88"/>
<polygon fill="black" stroke="black" points="276.09,-64.11 286.65,-64.94 278.91,-57.71 276.09,-64.11"/>
<text text-anchor="middle" x="250.89" y="-61.25" font-family="Times New Roman,serif" font-size="14.00">x2/y1</text>
</g>
<!-- A3&#45;&gt;A2 -->
<g id="edge8" class="edge">
<title>A3&#45;&gt;A2</title>
<path fill="none" stroke="black" d="M284.37,-75.45C268.34,-75.45 245.79,-75.45 227.61,-75.45"/>
<polygon fill="black" stroke="black" points="227.49,-71.95 217.49,-75.45 227.49,-78.95 227.49,-71.95"/>
<text text-anchor="middle" x="250.89" y="-79.25" font-family="Times New Roman,serif" font-size="14.00">x1/y3</text>
</g>
<!-- A3&#45;&gt;A3 -->
<g id="edge9" class="edge">
<title>A3&#45;&gt;A3</title>
<path fill="none" stroke="black" d="M296.13,-94.93C294.48,-105.38 297.72,-114.9 305.84,-114.9 311.17,-114.9 314.4,-110.8 315.52,-105.03"/>
<polygon fill="black" stroke="black" points="319.02,-104.94 315.55,-94.93 312.02,-104.92 319.02,-104.94"/>
<text text-anchor="middle" x="305.84" y="-118.7" font-family="Times New Roman,serif" font-size="14.00">x2/y2</text>
</g>
</g>
</svg>
